<?xml version="1.0" encoding="UTF-8"?>
<svg version="1.1" xmlns="http://www.w3.org/2000/svg" width="64" height="64">
<path d="M0 0 C3.3 0 6.6 0 10 0 C10 0.66 10 1.32 10 2 C10.804375 2.268125 11.60875 2.53625 12.4375 2.8125 C13.7059375 3.4003125 13.7059375 3.4003125 15 4 C15.495 5.485 15.495 5.485 16 7 C18.475 7.495 18.475 7.495 21 8 C21 8.66 21 9.32 21 10 C20.01 10 19.02 10 18 10 C18.99 12.97 19.98 15.94 21 19 C21.77772405 16.66682784 22.42415568 14.38564077 23 12 C23.66 12 24.32 12 25 12 C24.505 9.525 24.505 9.525 24 7 C24.99 7 25.98 7 27 7 C27 4.69 27 2.38 27 0 C29.97 0 32.94 0 36 0 C36 0.66 36 1.32 36 2 C36.66 2 37.32 2 38 2 C38 2.66 38 3.32 38 4 C38.66 4 39.32 4 40 4 C39.42389687 9.54955043 37.97901452 14.26029497 35.9375 19.4375 C35.51500977 20.53481445 35.51500977 20.53481445 35.08398438 21.65429688 C34.39586753 23.43873546 33.69885394 25.21973905 33 27 C33.99 27 34.98 27 36 27 C35.67 28.32 35.34 29.64 35 31 C34.38640625 31.06058594 33.7728125 31.12117188 33.140625 31.18359375 C30.77820953 31.8211165 30.77820953 31.8211165 29.734375 34.28515625 C29.40953125 35.20167969 29.0846875 36.11820313 28.75 37.0625 C28.41484375 37.98160156 28.0796875 38.90070312 27.734375 39.84765625 C27.49203125 40.55792969 27.2496875 41.26820312 27 42 C19.26487524 42.2975048 19.26487524 42.2975048 16 40 C15.34 39.01 14.68 38.02 14 37 C13.67 37.99 13.34 38.98 13 40 C4.32910197 42.33447255 -4.10456358 42.19865739 -13 42 C-13 41.34 -13 40.68 -13 40 C-13.99 40 -14.98 40 -16 40 C-16.33 35.38 -16.66 30.76 -17 26 C-18.32 25.67 -19.64 25.34 -21 25 C-20.67 23.68 -20.34 22.36 -20 21 C-18.68 21 -17.36 21 -16 21 C-16 18.03 -16 15.06 -16 12 C-16.99 12 -17.98 12 -19 12 C-19 11.01 -19 10.02 -19 9 C-18.01 9 -17.02 9 -16 9 C-16 6.69 -16 4.38 -16 2 C-10.72 2 -5.44 2 0 2 C0 1.34 0 0.68 0 0 Z M-3 14 C-3 15.32 -3 16.64 -3 18 C-1.68 18 -0.36 18 1 18 C0.2884375 18.556875 0.2884375 18.556875 -0.4375 19.125 C-2.52205802 21.62646962 -2.64621491 23.81593418 -3 27 C-1.00045254 27.04254356 1.00041636 27.04080783 3 27 C4.66561399 25.33438601 4.17115945 23.34037295 4.1875 21.0625 C4.20167969 20.16660156 4.21585938 19.27070313 4.23046875 18.34765625 C4.23194769 15.80885466 4.23194769 15.80885466 2 14 C-0.58354218 13.83312552 -0.58354218 13.83312552 -3 14 Z " fill="#FAFCF7" transform="translate(22,10)"/>
<path d="M0 0 C2.97 0 5.94 0 9 0 C9 0.66 9 1.32 9 2 C9.66 2 10.32 2 11 2 C11 2.66 11 3.32 11 4 C11.66 4 12.32 4 13 4 C12.42389687 9.54955043 10.97901452 14.26029497 8.9375 19.4375 C8.65583984 20.16904297 8.37417969 20.90058594 8.08398438 21.65429688 C7.39586753 23.43873546 6.69885394 25.21973905 6 27 C6.99 27 7.98 27 9 27 C8.67 28.32 8.34 29.64 8 31 C7.38640625 31.06058594 6.7728125 31.12117188 6.140625 31.18359375 C3.77820953 31.8211165 3.77820953 31.8211165 2.734375 34.28515625 C2.40953125 35.20167969 2.0846875 36.11820313 1.75 37.0625 C1.41484375 37.98160156 1.0796875 38.90070312 0.734375 39.84765625 C0.49203125 40.55792969 0.2496875 41.26820312 0 42 C-2.31 42 -4.62 42 -7 42 C-7.20496094 41.37351563 -7.40992188 40.74703125 -7.62109375 40.1015625 C-7.89050781 39.28429688 -8.15992188 38.46703125 -8.4375 37.625 C-8.70433594 36.81289063 -8.97117187 36.00078125 -9.24609375 35.1640625 C-9.95179729 32.98968201 -9.95179729 32.98968201 -11 31 C-11.29314253 29.00314794 -11.55984156 27.00237719 -11.8125 25 C-12.71400333 18.83972726 -14.47839283 13.65451304 -17 8 C-17.33 7.01 -17.66 6.02 -18 5 C-16.02 4.67 -14.04 4.34 -12 4 C-11.67 4.99 -11.34 5.98 -11 7 C-9.35 7.33 -7.7 7.66 -6 8 C-6 8.66 -6 9.32 -6 10 C-6.99 10 -7.98 10 -9 10 C-8.01 12.97 -7.02 15.94 -6 19 C-5.22227595 16.66682784 -4.57584432 14.38564077 -4 12 C-3.34 12 -2.68 12 -2 12 C-2.33 10.35 -2.66 8.7 -3 7 C-2.01 7 -1.02 7 0 7 C0 4.69 0 2.38 0 0 Z " fill="#F5F4EB" transform="translate(49,10)"/>
<path d="M0 0 C2.35424675 -0.02726927 4.70816962 -0.04696719 7.0625 -0.0625 C8.37347656 -0.07410156 9.68445313 -0.08570313 11.03515625 -0.09765625 C14.83896047 -0.00396649 18.29725355 0.10876823 22 1 C23.48828125 2.85546875 23.48828125 2.85546875 24.3125 5.1875 C24.61285156 6.00347656 24.91320312 6.81945312 25.22265625 7.66015625 C25.47917969 8.43230469 25.73570313 9.20445313 26 10 C26.4125 11.03125 26.825 12.0625 27.25 13.125 C28.13043345 16.49999488 28.13892434 19.52689158 28 23 C26.12890625 22.80859375 26.12890625 22.80859375 24 22 C22.83984375 19.78515625 22.83984375 19.78515625 21.9375 17.0625 C20.55729983 12.7819087 20.55729983 12.7819087 17 10 C14.9507906 9.54860541 14.9507906 9.54860541 12.8125 9.375 C11.554375 9.25125 10.29625 9.1275 9 9 C9 10.32 9 11.64 9 13 C10.32 13 11.64 13 13 13 C12.67 13.99 12.34 14.98 12 16 C11.34 16 10.68 16 10 16 C9.67 19.3 9.34 22.6 9 26 C8.01 26 7.02 26 6 26 C6 19.4 6 12.8 6 6 C5.01 6 4.02 6 3 6 C2.67 7.65 2.34 9.3 2 11 C1.34 11 0.68 11 0 11 C0 7.37 0 3.74 0 0 Z " fill="#F50AEE" transform="translate(10,15)"/>
<path d="M0 0 C-0.57610313 5.54955043 -2.02098548 10.26029497 -4.0625 15.4375 C-4.34416016 16.16904297 -4.62582031 16.90058594 -4.91601562 17.65429688 C-5.60413247 19.43873546 -6.30114606 21.21973905 -7 23 C-6.01 23 -5.02 23 -4 23 C-4.33 24.32 -4.66 25.64 -5 27 C-5.61359375 27.06058594 -6.2271875 27.12117188 -6.859375 27.18359375 C-9.22179047 27.8211165 -9.22179047 27.8211165 -10.265625 30.28515625 C-10.59046875 31.20167969 -10.9153125 32.11820313 -11.25 33.0625 C-11.58515625 33.98160156 -11.9203125 34.90070312 -12.265625 35.84765625 C-12.50796875 36.55792969 -12.7503125 37.26820312 -13 38 C-15.31 38 -17.62 38 -20 38 C-20.495 36.515 -20.495 36.515 -21 35 C-18.525 34.505 -18.525 34.505 -16 34 C-15.01 30.535 -15.01 30.535 -14 27 C-14.66 26.67 -15.32 26.34 -16 26 C-14.62409646 21.78986197 -13.14357711 17.63739805 -11.5625 13.5 C-11.15128906 12.4171875 -10.74007812 11.334375 -10.31640625 10.21875 C-9.01338694 7.03273246 -7.71677275 3.98569173 -6 1 C-3 0 -3 0 0 0 Z " fill="#FAEE23" transform="translate(62,14)"/>
<path d="M0 0 C4.37821506 6.56732259 5.41855346 10.30904748 4 18 C-4.67089803 20.33447255 -13.10456358 20.19865739 -22 20 C-21.67 17.36 -21.34 14.72 -21 12 C-20.40461426 11.98541748 -19.80922852 11.97083496 -19.19580078 11.95581055 C-16.50486949 11.88145656 -13.81519667 11.78475813 -11.125 11.6875 C-9.71927734 11.65366211 -9.71927734 11.65366211 -8.28515625 11.61914062 C-7.38925781 11.58369141 -6.49335938 11.54824219 -5.5703125 11.51171875 C-4.74289551 11.48553467 -3.91547852 11.45935059 -3.06298828 11.43237305 C-0.60672068 11.16903363 -0.60672068 11.16903363 1 8 C0.01 8 -0.98 8 -2 8 C-1.34 5.36 -0.68 2.72 0 0 Z " fill="#F721EE" transform="translate(31,32)"/>
<path d="M0 0 C2.97 0 5.94 0 9 0 C9 0.66 9 1.32 9 2 C9.66 2 10.32 2 11 2 C10.67 2.99 10.34 3.98 10 5 C9.01 5.33 8.02 5.66 7 6 C5.86395771 8.56497048 4.90010755 11.04109003 4 13.6875 C2.2688643 18.64197431 0.46323121 23.34478625 -2 28 C-2.99 28 -3.98 28 -5 28 C-6.0024305 22.65370398 -5.84888195 18.37625234 -5 13 C-4.01 12.67 -3.02 12.34 -2 12 C-2.33 10.35 -2.66 8.7 -3 7 C-2.01 7 -1.02 7 0 7 C0 4.69 0 2.38 0 0 Z " fill="#25E4E8" transform="translate(49,10)"/>
<path d="M0 0 C3.3 0 6.6 0 10 0 C10 0.66 10 1.32 10 2 C10.99 2.33 11.98 2.66 13 3 C13 3.66 13 4.32 13 5 C6.375 7.125 6.375 7.125 3 6 C0.43217978 5.77268477 -2.11557464 5.58417733 -4.6875 5.4375 C-7.100625 5.293125 -9.51375 5.14875 -12 5 C-12 10.61 -12 16.22 -12 22 C-13.32 21.67 -14.64 21.34 -16 21 C-16 18.03 -16 15.06 -16 12 C-16.99 12 -17.98 12 -19 12 C-19 11.01 -19 10.02 -19 9 C-18.01 9 -17.02 9 -16 9 C-16 6.69 -16 4.38 -16 2 C-10.72 2 -5.44 2 0 2 C0 1.34 0 0.68 0 0 Z " fill="#2CD9EF" transform="translate(22,10)"/>
<path d="M0 0 C0.61875 0.185625 1.2375 0.37125 1.875 0.5625 C4.04160178 1.23686176 4.04160178 1.23686176 6 0 C6.67305018 1.60149886 7.33822227 3.20631029 8 4.8125 C8.37125 5.70582031 8.7425 6.59914063 9.125 7.51953125 C10 10 10 10 10 13 C10.93585937 13.11214844 10.93585937 13.11214844 11.890625 13.2265625 C14 14 14 14 15.046875 15.9609375 C15.27890625 16.75757812 15.5109375 17.55421875 15.75 18.375 C15.99234375 19.16648437 16.2346875 19.95796875 16.484375 20.7734375 C17 23 17 23 17 26 C16.01 26 15.02 26 14 26 C11.79078028 22.68617042 11.054803 19.82366087 10 16 C9.35800351 14.32367583 8.70105843 12.65249487 8 11 C7.071875 12.175625 7.071875 12.175625 6.125 13.375 C4 16 4 16 2 18 C-1.625 18.125 -1.625 18.125 -5 18 C-5 16.35 -5 14.7 -5 13 C-3.02 12.67 -1.04 12.34 1 12 C1.02698189 10.37509046 1.04638757 8.75005367 1.0625 7.125 C1.07410156 6.22007813 1.08570313 5.31515625 1.09765625 4.3828125 C1.16249257 1.9831415 1.16249257 1.9831415 0 0 Z " fill="#1430C2" transform="translate(24,24)"/>
<path d="M0 0 C1.98 0 3.96 0 6 0 C12.32714286 13.82142857 12.32714286 13.82142857 12 22 C10.140625 21.8046875 10.140625 21.8046875 8 21 C6.734375 18.8203125 6.734375 18.8203125 5.75 16.125 C5.41484375 15.24070312 5.0796875 14.35640625 4.734375 13.4453125 C4 11 4 11 4 8 C3.34 8 2.68 8 2 8 C0.74335022 5.09399739 0 3.20395416 0 0 Z " fill="#1818DE" transform="translate(26,16)"/>
<path d="M0 0 C4.37821506 6.56732259 5.41855346 10.30904748 4 18 C-4.67089803 20.33447255 -13.10456358 20.19865739 -22 20 C-22 19.67 -22 19.34 -22 19 C-20.41058594 18.90912109 -20.41058594 18.90912109 -18.7890625 18.81640625 C-17.40102779 18.73199873 -16.01300768 18.64735083 -14.625 18.5625 C-13.92632812 18.52318359 -13.22765625 18.48386719 -12.5078125 18.44335938 C-8.62639508 18.25719866 -8.62639508 18.25719866 -5 17 C-5.33 16.34 -5.66 15.68 -6 15 C-4.47005208 13.76302083 -2.94010417 12.52604167 -1.41015625 11.2890625 C0.13266437 10.0333609 0.13266437 10.0333609 1 8 C0.01 8 -0.98 8 -2 8 C-1.34 5.36 -0.68 2.72 0 0 Z " fill="#D71781" transform="translate(31,32)"/>
<path d="M0 0 C0.99 0 1.98 0 3 0 C2.40109006 5.43296871 1.1201911 10.24614259 -0.75 15.375 C-0.98976563 16.09816406 -1.22953125 16.82132813 -1.4765625 17.56640625 C-2.234375 19.6484375 -2.234375 19.6484375 -4 23 C-6.703125 23.9765625 -6.703125 23.9765625 -9 24 C-3.234375 3.234375 -3.234375 3.234375 0 0 Z " fill="#DD116B" transform="translate(59,14)"/>
<path d="M0 0 C3.3 0 6.6 0 10 0 C10 0.66 10 1.32 10 2 C10.99 2.33 11.98 2.66 13 3 C13 3.66 13 4.32 13 5 C6.375 7.125 6.375 7.125 3 6 C0.43365139 5.77281504 -2.11678107 5.58391816 -4.6875 5.4375 C-5.7403418 5.37272461 -5.7403418 5.37272461 -6.81445312 5.30664062 C-8.54275206 5.2008264 -10.2713511 5.09993419 -12 5 C-12 4.67 -12 4.34 -12 4 C-6.06 3.505 -6.06 3.505 0 3 C0 2.01 0 1.02 0 0 Z " fill="#2CCDDD" transform="translate(22,10)"/>
<path d="M0 0 C1.32 0 2.64 0 4 0 C4 0.66 4 1.32 4 2 C5.32 2 6.64 2 8 2 C8 2.66 8 3.32 8 4 C6.68 4 5.36 4 4 4 C4 7.63 4 11.26 4 15 C2.68 15.33 1.36 15.66 0 16 C-0.19441368 13.7089095 -0.38033135 11.41709663 -0.5625 9.125 C-0.71912109 7.21074219 -0.71912109 7.21074219 -0.87890625 5.2578125 C-1 2 -1 2 0 0 Z " fill="#27E4E7" transform="translate(6,34)"/>
<path d="M0 0 C0.99 0.33 1.98 0.66 3 1 C3 1.66 3 2.32 3 3 C4.65 3.33 6.3 3.66 8 4 C8 4.66 8 5.32 8 6 C7.01 6 6.02 6 5 6 C5.2165625 6.56847656 5.433125 7.13695312 5.65625 7.72265625 C7.45981958 12.7242219 8.3389604 16.68962036 8 22 C4.55041338 20.27520669 4.06928291 16.16463471 2.875 12.6875 C2.59785156 11.91470703 2.32070313 11.14191406 2.03515625 10.34570312 C0.72337509 6.58806398 0 4.06386359 0 0 Z " fill="#DA136D" transform="translate(35,14)"/>
<path d="M0 0 C3.14344775 3.41679104 3.91750186 6.38010395 4 11 C2.5 13.4375 2.5 13.4375 0 15 C-3.75 15.25 -3.75 15.25 -7 15 C-7 13.35 -7 11.7 -7 10 C-5.02 9.67 -3.04 9.34 -1 9 C-0.67 6.03 -0.34 3.06 0 0 Z " fill="#26BCC9" transform="translate(26,27)"/>
<path d="M0 0 C1.32 0 2.64 0 4 0 C5.17692357 3.24637731 6.33972274 6.4976398 7.5 9.75 C7.83386719 10.67039062 8.16773438 11.59078125 8.51171875 12.5390625 C8.82753906 13.42851562 9.14335938 14.31796875 9.46875 15.234375 C9.76201172 16.05131836 10.05527344 16.86826172 10.35742188 17.70996094 C11 20 11 20 11 24 C10.34 24 9.68 24 9 24 C8.79842285 23.41508789 8.5968457 22.83017578 8.38916016 22.22753906 C7.47060571 19.56737162 6.54784791 16.90868088 5.625 14.25 C5.30789062 13.32960938 4.99078125 12.40921875 4.6640625 11.4609375 C4.3546875 10.57148438 4.0453125 9.68203125 3.7265625 8.765625 C3.44377441 7.94868164 3.16098633 7.13173828 2.86962891 6.29003906 C2.04060935 4.10693871 1.08327115 2.06693116 0 0 Z " fill="#EB9A38" transform="translate(31,15)"/>
<path d="M0 0 C1.32 0 2.64 0 4 0 C3.52309796 1.62566606 3.04340334 3.25051311 2.5625 4.875 C2.29566406 5.77992187 2.02882813 6.68484375 1.75390625 7.6171875 C1 10 1 10 0 12 C-2.31 12 -4.62 12 -7 12 C-7.33 11.01 -7.66 10.02 -8 9 C-7.236875 9 -6.47375 9 -5.6875 9 C-2.8993117 8.29819851 -2.8993117 8.29819851 -2 6.15234375 C-1.25331349 4.11690505 -0.58484471 2.08737258 0 0 Z " fill="#E4136F" transform="translate(49,40)"/>
<path d="M0 0 C2.97 0 5.94 0 9 0 C9 0.66 9 1.32 9 2 C9.66 2 10.32 2 11 2 C10.67 2.99 10.34 3.98 10 5 C7.36 4.67 4.72 4.34 2 4 C1.01 7.3 0.02 10.6 -1 14 C-1.99 13.34 -2.98 12.68 -4 12 C-3.34 12 -2.68 12 -2 12 C-2.33 10.35 -2.66 8.7 -3 7 C-2.01 7 -1.02 7 0 7 C0 4.69 0 2.38 0 0 Z " fill="#32B0AE" transform="translate(49,10)"/>
<path d="M0 0 C0 3.63 0 7.26 0 11 C-0.99 11 -1.98 11 -3 11 C-3 10.34 -3 9.68 -3 9 C-7.455 9.495 -7.455 9.495 -12 10 C-11.67 8.68 -11.34 7.36 -11 6 C-8.36 6.33 -5.72 6.66 -3 7 C-3 5.02 -3 3.04 -3 1 C-1 0 -1 0 0 0 Z " fill="#F7F0F6" transform="translate(13,25)"/>
<path d="M0 0 C0.99 0 1.98 0 3 0 C3 6.6 3 13.2 3 20 C2.01 20 1.02 20 0 20 C0 13.4 0 6.8 0 0 Z " fill="#F5D132" transform="translate(13,21)"/>
<path d="M0 0 C0.99 0 1.98 0 3 0 C9.32714286 13.82142857 9.32714286 13.82142857 9 22 C7 21 7 21 6.23803711 19.28173828 C6.0035083 18.55196777 5.76897949 17.82219727 5.52734375 17.0703125 C5.26759766 16.27496094 5.00785156 15.47960937 4.74023438 14.66015625 C4.47533203 13.82355469 4.21042969 12.98695312 3.9375 12.125 C3.66873047 11.29613281 3.39996094 10.46726562 3.12304688 9.61328125 C2.62282838 8.06896579 2.1256886 6.52364744 1.63256836 4.97705078 C1.1005002 3.31410677 0.55213036 1.65639107 0 0 Z " fill="#E613E4" transform="translate(29,16)"/>
<path d="M0 0 C-0.8125 1.9375 -0.8125 1.9375 -2 4 C-2.99 4.33 -3.98 4.66 -5 5 C-5 5.66 -5 6.32 -5 7 C-2.69 6.34 -0.38 5.68 2 5 C2 5.99 2 6.98 2 8 C-6.67089803 10.33447255 -15.10456358 10.19865739 -24 10 C-24 9.67 -24 9.34 -24 9 C-22.41058594 8.90912109 -22.41058594 8.90912109 -20.7890625 8.81640625 C-19.40102779 8.73199873 -18.01300768 8.64735083 -16.625 8.5625 C-15.92632812 8.52318359 -15.22765625 8.48386719 -14.5078125 8.44335938 C-10.62639508 8.25719866 -10.62639508 8.25719866 -7 7 C-7.33 6.34 -7.66 5.68 -8 5 C-2.25 0 -2.25 0 0 0 Z " fill="#944143" transform="translate(33,42)"/>
<path d="M0 0 C1.98 0 3.96 0 6 0 C6 0.33 6 0.66 6 1 C4.35 1 2.7 1 1 1 C1 2.32 1 3.64 1 5 C2.32 5 3.64 5 5 5 C4.67 5.99 4.34 6.98 4 8 C3.34 8 2.68 8 2 8 C1.67 11.3 1.34 14.6 1 18 C0.01 18 -0.98 18 -2 18 C-2 16.35 -2 14.7 -2 13 C-1.34 13 -0.68 13 0 13 C0 8.71 0 4.42 0 0 Z " fill="#A31158" transform="translate(18,23)"/>
<path d="M0 0 C5.28 0 10.56 0 16 0 C16 0.33 16 0.66 16 1 C11.05 1 6.1 1 1 1 C1 3.64 1 6.28 1 9 C1.66 9.33 2.32 9.66 3 10 C2.34 10 1.68 10 1 10 C1 12.97 1 15.94 1 19 C0.67 19 0.34 19 0 19 C0 16.03 0 13.06 0 10 C-0.99 10 -1.98 10 -3 10 C-3 9.01 -3 8.02 -3 7 C-2.01 7 -1.02 7 0 7 C0 4.69 0 2.38 0 0 Z " fill="#279EA4" transform="translate(6,12)"/>
<path d="M0 0 C2 1 2 1 2.8515625 2.9609375 C3.10679688 3.75757813 3.36203125 4.55421875 3.625 5.375 C3.88539062 6.16648437 4.14578125 6.95796875 4.4140625 7.7734375 C5 10 5 10 5 13 C4.01 13 3.02 13 2 13 C-0.59381229 9.10928156 -0.63187808 6.63833615 -1 2 C-0.67 1.34 -0.34 0.68 0 0 Z " fill="#2FD4D7" transform="translate(36,37)"/>
<path d="M0 0 C0.99 0.99 1.98 1.98 3 3 C-0.61867559 4.2062252 -3.92506251 4.10816918 -7.6875 4.0625 C-8.38939453 4.05798828 -9.09128906 4.05347656 -9.81445312 4.04882812 C-11.54300538 4.03706927 -13.27151365 4.01913454 -15 4 C-15 3.34 -15 2.68 -15 2 C-14.16855469 1.93941406 -13.33710938 1.87882812 -12.48046875 1.81640625 C-10.85044922 1.69072266 -10.85044922 1.69072266 -9.1875 1.5625 C-8.10855469 1.48128906 -7.02960937 1.40007813 -5.91796875 1.31640625 C-2.94010095 1.09787539 -2.94010095 1.09787539 0 0 Z " fill="#E91777" transform="translate(24,47)"/>
<path d="M0 0 C0.66 1.32 1.32 2.64 2 4 C4.64 3.67 7.28 3.34 10 3 C9.67 4.32 9.34 5.64 9 7 C5.37 6.67 1.74 6.34 -2 6 C-1.34 4.02 -0.68 2.04 0 0 Z " fill="#E2DC2F" transform="translate(48,34)"/>
<path d="M0 0 C2.31 0.33 4.62 0.66 7 1 C7 1.33 7 1.66 7 2 C5.35 2 3.7 2 2 2 C2 6.29 2 10.58 2 15 C1.34 15 0.68 15 0 15 C0 10.05 0 5.1 0 0 Z " fill="#F60580" transform="translate(16,21)"/>
<path d="M0 0 C0.66 0 1.32 0 2 0 C3.23076923 5.41538462 3.23076923 5.41538462 2.0625 8.375 C1.711875 8.91125 1.36125 9.4475 1 10 C-0.32 10 -1.64 10 -3 10 C-2.01 6.7 -1.02 3.4 0 0 Z " fill="#E42268" transform="translate(53,28)"/>
<path d="M0 0 C2.125 0.375 2.125 0.375 4 1 C3.34 2.32 2.68 3.64 2 5 C-1.96 4.67 -5.92 4.34 -10 4 C-9.67 3.34 -9.34 2.68 -9 2 C-7.329375 2.061875 -7.329375 2.061875 -5.625 2.125 C-1.95633975 2.41121859 -1.95633975 2.41121859 0 0 Z " fill="#D7F5F2" transform="translate(28,39)"/>
<path d="M0 0 C0.6875 1.8125 0.6875 1.8125 1 4 C0 5.75 0 5.75 -2 7 C-5.6875 7.1875 -5.6875 7.1875 -9 7 C-9 6.34 -9 5.68 -9 5 C-7.88625 4.54625 -6.7725 4.0925 -5.625 3.625 C-2.03800992 2.27534014 -2.03800992 2.27534014 0 0 Z " fill="#16EFF2" transform="translate(28,35)"/>
<path d="M0 0 C4.95 0 9.9 0 15 0 C15 0.33 15 0.66 15 1 C9.06 1.495 9.06 1.495 3 2 C2.67 3.98 2.34 5.96 2 8 C1.34 8 0.68 8 0 8 C0 5.36 0 2.72 0 0 Z " fill="#13EBED" transform="translate(7,13)"/>
<path d="M0 0 C3.3 0 6.6 0 10 0 C10 0.66 10 1.32 10 2 C10.66 2.33 11.32 2.66 12 3 C10.37509046 3.02698189 8.75005367 3.04638757 7.125 3.0625 C5.76761719 3.07990234 5.76761719 3.07990234 4.3828125 3.09765625 C2 3 2 3 0 2 C0 1.34 0 0.68 0 0 Z " fill="#345786" transform="translate(22,10)"/>
<path d="M0 0 C2.97 0 5.94 0 9 0 C9 0.66 9 1.32 9 2 C9.66 2 10.32 2 11 2 C10.67 2.66 10.34 3.32 10 4 C7.03 3.67 4.06 3.34 1 3 C0.67 2.01 0.34 1.02 0 0 Z " fill="#2CA3A2" transform="translate(49,10)"/>
<path d="M0 0 C0.33 0.99 0.66 1.98 1 3 C0.67 3.66 0.34 4.32 0 5 C-2.31 5 -4.62 5 -7 5 C-7.33 4.01 -7.66 3.02 -8 2 C-6.865625 1.855625 -5.73125 1.71125 -4.5625 1.5625 C-1.19222799 1.38828522 -1.19222799 1.38828522 0 0 Z " fill="#B8155C" transform="translate(49,47)"/>
<path d="M0 0 C2.64 0.33 5.28 0.66 8 1 C8 1.66 8 2.32 8 3 C3.545 3.495 3.545 3.495 -1 4 C-0.67 2.68 -0.34 1.36 0 0 Z " fill="#C316C6" transform="translate(2,31)"/>
<path d="M0 0 C1.890625 0.18359375 1.890625 0.18359375 4 1 C5.046875 3.28515625 5.046875 3.28515625 5.75 6.0625 C5.99234375 6.98160156 6.2346875 7.90070312 6.484375 8.84765625 C6.65453125 9.55792969 6.8246875 10.26820312 7 11 C3.17330957 7.57611908 1.27721526 4.99275057 0 0 Z " fill="#D40E65" transform="translate(22,15)"/>
<path d="M0 0 C0.66 0 1.32 0 2 0 C1.125 6.875 1.125 6.875 0 8 C-1.66617115 8.04063832 -3.33388095 8.042721 -5 8 C-5 7.34 -5 6.68 -5 6 C-4.01 6 -3.02 6 -2 6 C-1.34 4.02 -0.68 2.04 0 0 Z " fill="#F6E42D" transform="translate(46,41)"/>
<path d="M0 0 C0.66 0.33 1.32 0.66 2 1 C-0.475 6.94 -0.475 6.94 -3 13 C-4.08644535 8.6542186 -3.90680911 8.05039452 -2.0625 4.25 C-1.68222656 3.45078125 -1.30195312 2.6515625 -0.91015625 1.828125 C-0.60980469 1.22484375 -0.30945312 0.6215625 0 0 Z " fill="#D9FAEA" transform="translate(50,25)"/>
<path d="M0 0 C0.33 0 0.66 0 1 0 C1.3125 2.3125 1.3125 2.3125 1 5 C-1.86103423 7.24243223 -3.34076304 8 -7 8 C-7 7.34 -7 6.68 -7 6 C-5.01310269 4.64721885 -3.01254782 3.31431695 -1 2 C-0.67 1.34 -0.34 0.68 0 0 Z " fill="#EA0E76" transform="translate(35,41)"/>
<path d="M0 0 C2.87579981 4.31369972 4 7.80734761 4 13 C3.34 13 2.68 13 2 13 C0.24252386 8.49646738 -0.19294408 4.82360189 0 0 Z " fill="#2C0EF2" transform="translate(32,24)"/>
<path d="M0 0 C0.99 0.33 1.98 0.66 3 1 C3 1.66 3 2.32 3 3 C4.65 3.33 6.3 3.66 8 4 C8 4.66 8 5.32 8 6 C7.01 6 6.02 6 5 6 C4.67 6.66 4.34 7.32 4 8 C2.68 5.36 1.36 2.72 0 0 Z " fill="#9E1155" transform="translate(35,14)"/>
<path d="M0 0 C2 1 2 1 3.125 3.8125 C4 7 4 7 4 11 C3.34 11 2.68 11 2 11 C0.57741188 7.17679443 -0.24042276 4.08718695 0 0 Z " fill="#F7DD2C" transform="translate(38,28)"/>
<path d="M0 0 C1.8125 0.0625 1.8125 0.0625 4 1 C5.8125 4.375 5.8125 4.375 7 8 C6.67 8.99 6.34 9.98 6 11 C5.18697675 9.54195831 4.37459869 8.08355685 3.5625 6.625 C3.11003906 5.81289063 2.65757813 5.00078125 2.19140625 4.1640625 C1.4349464 2.79003378 0.70145369 1.40290739 0 0 Z " fill="#2320D6" transform="translate(24,24)"/>
<path d="M0 0 C0.99 0.33 1.98 0.66 3 1 C2.01 3.97 1.02 6.94 0 10 C-0.66 9.34 -1.32 8.68 -2 8 C-1.69347955 5.0574037 -1.32728846 2.65457692 0 0 Z " fill="#D9F9E3" transform="translate(53,15)"/>
<path d="M0 0 C5.27293578 6.95068807 5.27293578 6.95068807 5 12 C2.43470546 10.71735273 2.33500137 9.77227651 1.375 7.125 C1.11460938 6.42632812 0.85421875 5.72765625 0.5859375 5.0078125 C0 3 0 3 0 0 Z " fill="#F00C76" transform="translate(35,15)"/>
<path d="M0 0 C1.65 0 3.3 0 5 0 C4.01 0.33 3.02 0.66 2 1 C1.67 2.65 1.34 4.3 1 6 C-0.32 6.33 -1.64 6.66 -3 7 C-1.125 2.25 -1.125 2.25 0 0 Z " fill="#19F3F5" transform="translate(51,14)"/>
<path d="M0 0 C0.66 0 1.32 0 2 0 C1.34 2.97 0.68 5.94 0 9 C-2 6 -2 6 -1.6875 3.375 C-1 1 -1 1 0 0 Z " fill="#F5DD2A" transform="translate(56,15)"/>
<path d="M0 0 C-1.36983503 3.16115776 -1.9890638 3.9927092 -5 6 C-5.99 5.67 -6.98 5.34 -8 5 C-2.25 0 -2.25 0 0 0 Z " fill="#F3B939" transform="translate(33,42)"/>
<path d="M0 0 C0.93065133 2.60582371 1.14917407 3.64198224 0.0625 6.25 C-0.4634375 7.11625 -0.4634375 7.11625 -1 8 C-1.66 8 -2.32 8 -3 8 C-2.37240135 5.07120629 -1.41377341 2.63904371 0 0 Z " fill="#0EF7F8" transform="translate(47,27)"/>
</svg>
